<svg width="95" height="200" viewBox="0 0 95 200" fill="none" xmlns="http://www.w3.org/2000/svg">
  <path d="M40.9199 181.36C40.9199 181.36 44.4499 194.63 47.9899 199.94C47.9899 199.94 51.5299 194.63 55.0699 181.36H40.9199Z" fill="#FFF0F2"/>
  <path d="M35.3799 14.2202L36.0899 17.1202C48.4399 20.9402 65.0899 27.1802 78.6199 36.1202C84.8399 34.9802 89.3199 34.5302 89.3199 34.5302C89.3199 31.5902 89.1699 28.4202 88.9299 25.2402C77.8331 17.0025 65.5044 10.5699 52.3999 6.18018C46.5671 8.50871 40.883 11.1938 35.3799 14.2202Z" fill="white"/>
  <path d="M44.2198 50.4799C50.4898 42.4799 67.3798 38.1999 78.6198 36.1499C65.1398 27.1499 48.4398 20.9399 36.0898 17.1499L44.2198 50.4799Z" fill="#49A4FF"/>
  <path d="M52.3994 6.20998C65.5046 10.6028 77.8333 17.0388 88.9294 25.28C88.0094 13.17 85.7894 0.969979 85.7894 0.969979C76.4994 -1.83002 63.0694 1.96998 52.3994 6.20998Z" fill="#49A4FF"/>
  <path d="M37.1494 103.54C37.1494 103.54 41.5694 77.9002 54.8394 100.89L37.1494 103.54Z" fill="#FFF0F2"/>
  <path d="M41.8198 100.28C18.2798 102.83 0.00976562 121.51 0.00976562 144.19C0.0118004 152.132 2.27691 159.909 6.53977 166.61C4.50977 125.42 28.0898 107.28 41.8198 100.28Z" fill="#88C8FF"/>
  <path d="M66.32 103.73C60.2902 101.261 53.8359 99.9935 47.32 100C45.4825 100.007 43.6466 100.111 41.82 100.31C28.09 107.31 4.50998 125.42 6.53998 166.64C14.4 179.09 28.54 187.64 44.97 188.38C84.71 163.28 74.32 122.91 66.32 103.73Z" fill="#49A4FF"/>
  <path d="M66.32 103.73C74.32 122.91 84.7 163.25 44.96 188.38C45.74 188.38 46.52 188.44 47.31 188.44C73.44 188.44 94.62 168.64 94.62 144.22C94.63 126.12 82.99 110.57 66.32 103.73Z" fill="#008BF5"/>
  <path d="M43.3193 92.0498C43.3193 92.0498 38.8993 31.9098 31.8193 12.4498L35.3593 9.7998C35.3593 9.7998 47.7393 30.1398 46.8593 92.9298L43.3193 92.0498Z" fill="#866FB5"/>
</svg>