<svg viewBox="0 0 107 85" fill="none" xmlns="http://www.w3.org/2000/svg" id="R-2">
                <g clip-path="url(#clip0)">
                  <path
                    d="M8.082 49.452s-.99 9.623 8.562 12.562c0 0 30.112 7.31 32.31 1.375 0 0 2.675-7.48 2.617-7.98-.058-.503 1.307-3.993.747-5.253-.56-1.26-4.035-5.086-4.035-5.086s-38.421.473-40.201 4.382z"
                    fill="#FF976D"
                    stroke="#FF976D"
                  ></path>
                  <path
                    d="M45.178 49.008s-4.057 7.028-.122 13.403a3.92 3.92 0 003.61 2.375s4.566-.7 3.84-6.747c-.004 0-3.256-11.309-7.328-9.03v0z"
                    fill="#FFA384"
                    stroke="#FF976D"
                  ></path>
                  <path
                    d="M21.032 54s-2.421 4.98.153 8.164m12.006-6.856S31.648 60.902 35 64l-1.809-8.692z"
                    stroke="#FF976D"
                  ></path>
                  <path
                    d="M51.791 58.184a43.847 43.847 0 00-.52-1.6c-.14-.4-.278-.754-.433-1.14-1.111-2.772-2.732-5.67-4.292-5.988a1.354 1.354 0 00-.837.094c-.57 1.115-3.357 7.107-.04 12.482a.87.87 0 01.065.13 3.16 3.16 0 001.913 1.729c.119.04.24.076.361.105.172.031.346.052.52.06h.083c.347-.082.68-.21.993-.382 1.09-.588 2.584-2.04 2.187-5.49z"
                    fill="#FFA384"
                  ></path>
                  <path
                    d="M16.857 61.306c.029 0 1.238.3 3.148.722a8.063 8.063 0 01-.48-2.725c-4.105-1.343-7.714-3.776-10.389-5.974.682 2.801 2.58 6.396 7.721 7.977z"
                    fill="#FFBF93"
                  ></path>
                  <path
                    d="M44.399 62.736c-4.061-6.65-.03-13.79.144-14.078a.722.722 0 01.274-.27 2.852 2.852 0 012.007-.336c1.885.382 3.44 2.721 4.545 5.028.245-.975.484-2.166.278-2.635-.361-.798-2.364-3.173-3.693-4.65-1.761.026-10.381.185-19.077.722C11.71 47.58 9.154 49.192 8.775 49.67a12.844 12.844 0 00.361 3.66c2.675 2.198 6.284 4.631 10.389 5.974.019-1.785.375-3.55 1.05-5.202a.481.481 0 11.884.383 13.313 13.313 0 00-.942 5.1c.899.255 1.814.445 2.74.57 0 0 5.815 1.542 8.934 1.401a14.96 14.96 0 01.104-5.956.495.495 0 01.582-.36.475.475 0 01.36.58 14.243 14.243 0 00-.072 5.603 2.4 2.4 0 00.43-.145 3.818 3.818 0 013.87.304s3.443-.033 4.006.819c.206.31.99 1.332 1.971 2.505a15.66 15.66 0 002.465-.325 4.692 4.692 0 01-1.508-1.844z"
                    fill="#FFA384"
                  ></path>
                  <path
                    d="M23.246 60.155a19.947 19.947 0 01-2.74-.57c.023.93.249 1.846.661 2.681l.852.18c4.162.853 7.941 1.488 11.244 1.91a8.61 8.61 0 01-1.083-2.797c-3.119.137-8.934-1.404-8.934-1.404zm14.2 1.436a3.818 3.818 0 00-3.876-.303c-.139.062-.282.11-.43.145a7.182 7.182 0 001.419 3.079c2.936.384 5.899.52 8.858.404-.982-1.173-1.765-2.195-1.971-2.505-.556-.852-4-.82-4-.82z"
                    fill="#FFBF93"
                  ></path>
                  <path
                    d="M37.15 64.252s-2.346-3.61 1.625-5.054c0 0 6.317-1.624 5.234 4.151 0 0 7.22 2.888 7.941 11.912 0 0 0 8.122-9.566 9.024 0 0-9.204-.36-6.677-4.331 0-.007 5.595-2.534 1.444-15.702v0z"
                    fill="#0BCBBD"
                    stroke="#058B81"
                  ></path>
                  <path
                    d="M51.228 75.283c-.693-8.458-7.418-11.244-7.486-11.27a.722.722 0 01-.44-.804c.227-1.224.108-2.13-.362-2.693-.56-.672-1.588-.812-2.35-.812a7.445 7.445 0 00-1.606.18c-.917.34-1.49.83-1.7 1.444-.39 1.148.462 2.501.47 2.527a.634.634 0 01.082.173c.09.285.174.56.253.837 1.267-.407 2.982-.772 4.111-.26 0 0 10.714 9.772.932 18.857 7.836-1.162 8.089-7.634 8.096-8.18z"
                    fill="#0E9C8B"
                  ></path>
                  <path
                    d="M42.204 64.613c-1.13-.513-2.844-.148-4.111.26 3.414 11.612-.805 14.98-1.867 15.619-.36.678-.202 1.014-.14 1.13.653 1.248 4.176 1.851 6.28 1.941.264-.025.52-.057.77-.094 9.781-9.092-.932-18.856-.932-18.856z"
                    fill="#01B3A6"
                  ></path>
                  <path
                    d="M42.926 71.832s1.624 4.151-.361 6.317c-1.985 2.166-3.068 3.068-3.61 2.166-.541-.903.542-1.986 1.083-3.43.542-1.443 1.444-7.94 2.888-5.053z"
                    fill="#4BD2CF"
                  ></path>
                  <path
                    d="M11.637 57.754s1.03-1.306 2.567-1.17c0 0 2.985.037 3.689 3.971 0 0 4.758 5.097-1.473 15.118 0 0-6.031 7.11-15.02-.426 0 0-2.295-2.307 1.56-3.653 0 0 8.573-4.487 8.663-10.057-.01 0-.855-2.411.014-3.783v0z"
                    fill="#0BCBBD"
                    stroke="#058B81"
                  ></path>
                  <path
                    d="M15.493 62.086c-.798-.975-2.08-.95-3.17-.668a.872.872 0 010 .137C12.237 67.486 3.66 72.05 3.3 72.24l-.097.04c-1.007.36-1.621.805-1.733 1.277-.112.473.336 1.083.433 1.174a15.902 15.902 0 003.769 2.4c14.243-3.306 9.822-15.045 9.822-15.045z"
                    fill="#01B3A6"
                  ></path>
                  <path
                    d="M17.362 61.046a.772.772 0 01-.18-.36c-.585-3.27-2.888-3.383-2.996-3.386h-.047c-1.025-.094-1.776.722-1.913.87-.524.898-.13 2.562.068 3.136 0 .036.022.076.03.112 1.082-.281 2.37-.307 3.169.668 0 0 4.421 11.746-9.826 15.045a9.65 9.65 0 003.88.866 8.97 8.97 0 006.292-2.75c5.78-9.346 1.7-14.006 1.523-14.2z"
                    fill="#0E9C8B"
                  ></path>
                  <path
                    d="M8.995 69.84s-3.79 1.804-4.873 2.707c-1.083.902-1.624 1.985-.18 2.346 1.444.361 2.526.18 3.61-.722 1.082-.902 3.068-5.227 1.443-4.332z"
                    fill="#4BD2CF"
                  ></path>
                  <path
                    d="M49.124 32.949s-5.245-8.764-17.114-7.598c0 0-15.882.837-22.452 17.687 0 0-.776 4.591.415 5.162 1.192.57 5.931 3.837 8.353 4.003 2.422.166 15.475 1.205 15.475 1.205s2.646-.115 4.252-.769c1.606-.653 8.512-3.97 8.923-4.396.412-.426 2.772-.744 3.184-1.148.411-.404 1.13-12.72-1.036-14.146v0z"
                    fill="#9C0044"
                    stroke="#9D0143"
                  ></path>
                  <path
                    d="M49.282 46.565s-18.697 8.128-31.187 1.147c0 0-5.086-2.35-7.652-5.826 0 0-3.289-3.13-6.552 1.61 0 0-1.335 3.328.419 5.162 0 0 6.252 8.663 21.697 9.19 0 0 14.129.6 17.767-4.386 0 0 2.195-5.118 6.137-4.313l-.629-2.584z"
                    fill="#9C0044"
                    stroke="#9F084A"
                  ></path>
                  <path
                    d="M38.158 36.923s1.87 7.263.238 12.825M22.08 29.047s1.744 4.288 3.938 6.375c0 0 7.794 1.923 12.14 1.501 0 0 5.692-3.01 7.363-7.58l-23.44-.296zm-5.76 18.146s-4.213 2.577-4.845 6.858l4.844-6.858zm21.51 2.93s1.208 3.686.63 6.498l-.63-6.497zM26.017 35.423s-6.414 5.32-9.082 11.16l9.082-11.16z"
                    stroke="#9C0044"
                  ></path>
                  <path
                    d="M29.96 34.512c4.007.82 5.331.36 8.97-.621 1.938-.52 3.97-2.769 5.414-4.754a16.988 16.988 0 00-6.443-2.787 19.494 19.494 0 00-5.83-.263 25.478 25.478 0 00-9.478 2.978c.148.36.509 1.155 1.014 2.108.888.953 1.545 1.635 1.545 1.635s.809.885 4.808 1.704z"
                    fill="#FF0F74"
                  ></path>
                  <path
                    d="M38.94 33.891c-3.638.975-4.962 1.444-8.97.62-4.006-.822-4.807-1.721-4.807-1.721s-.657-.664-1.545-1.635a16.407 16.407 0 002.639 3.83c1.007.242 7.822 1.804 11.756 1.469.672-.361 5.267-3.057 6.902-6.909-.18-.137-.361-.274-.563-.408-1.458 1.985-3.473 4.234-5.411 4.754z"
                    fill="#E60068"
                  ></path>
                  <path
                    d="M28.155 36.389c-.938-.191-1.653-.361-2.01-.44-1.04.895-6.288 5.584-8.663 10.64.559.3.916.47.93.477l.048.026c.823.455 1.678.85 2.559 1.18 2.718.083 9.793-.152 12.302-.058 2.927.108 2.552-.462 3.645-2.202.614-.982 1.134-3.003 1.466-4.577a36.018 36.018 0 00-.635-4c-2.96.185-7.115-.526-9.642-1.046z"
                    fill="#FF0F74"
                  ></path>
                  <path
                    d="M33.306 48.214c-2.526-.094-9.583.14-12.301.058 1.118.423 2.268.755 3.44.992 4.577.939 9.446.574 13.633-.19.625-2.528.57-5.358.34-7.639-.333 1.574-.852 3.61-1.466 4.577-1.094 1.74-.718 2.31-3.646 2.202z"
                    fill="#E60068"
                  ></path>
                  <path
                    d="M41.103 46.128c1.408 1.516 6.382-2.38 6.382-2.38 2.418-2.208-.328-10.384-.328-10.384-.452-1.502-1.314-1.938-2.134-1.96-1.935 3.068-5.252 5.15-6.313 5.775.372 1.664.623 3.353.75 5.054.394 1.502.968 3.151 1.643 3.895z"
                    fill="#FF0F74"
                  ></path>
                  <path
                    d="M48.73 33.57a.772.772 0 01-.223-.235 15.1 15.1 0 00-2.809-3.133c-.199.415-.425.816-.675 1.202.82.022 1.682.458 2.133 1.96 0 0 2.747 8.176.329 10.385 0 0-4.974 3.895-6.382 2.379-.69-.744-1.249-2.394-1.642-3.892a23.49 23.49 0 01-.361 6.635 56.192 56.192 0 009.88-2.96.722.722 0 01.61 0l.068.047c.383-2.859.437-11.508-.928-12.388z"
                    fill="#E60068"
                  ></path>
                  <path
                    d="M16.287 43.749c2.61-3.61 5.295-5.599 7.219-6.663.78-.77 1.444-1.354 1.805-1.697-1.762-1.895-3.148-4.924-3.556-5.87a26.351 26.351 0 00-10.742 11.938c.284.378.589.74.913 1.083a11.326 11.326 0 004.36 1.209z"
                    fill="#FF0F74"
                  ></path>
                  <path
                    d="M23.492 37.086c-1.91 1.082-4.596 3.053-7.22 6.663a11.326 11.326 0 01-4.331-1.213 21.883 21.883 0 004.692 3.577c1.726-3.631 4.772-6.984 6.859-9.027z"
                    fill="#E60068"
                  ></path>
                  <path
                    d="M35.014 27.928s-4.549 1.772-6.108 2.19c-1.56.42-4.299.593-4.39-.158-.09-.75-2.31-.722.622-1.837 2.93-1.116 9.598-3.69 9.876-.195zm-15.75 4.884s-2.938 2.346-4.363 4.512a15.414 15.414 0 01-2.61 3.147s1.195-3.44 3.14-5.743c1.946-2.303 5.072-4.367 3.834-1.916zm7.014 4.136l3.155 1.383-2.978 1.375-3.126 2.061-1.671.87a12.514 12.514 0 014.62-5.689z"
                    fill="#FF61A9"
                  ></path>
                  <path
                    d="M15.521 47.15c-1.559-.947-3.63-2.39-5.154-4.195-.159-.188-.31-.38-.459-.57l-.06-.055a3.762 3.762 0 00-.622-.39 3.31 3.31 0 00-.808-.281c-1.365-.282-2.671.451-3.88 2.166a7.043 7.043 0 00-.271.96c1.956 3.404 6.44 4.555 7.085 5.053.383.3 1.015.102 1.596-.209.104-.13.206-.263.31-.386.67-.784 1.43-1.486 2.264-2.094z"
                    fill="#FF0F74"
                  ></path>
                  <path
                    d="M11.352 49.86c-.646-.505-5.129-1.657-7.085-5.053-.206.985-.31 2.45.563 3.364l.065.076c.029.04 1.967 2.642 6.248 5.024a9.148 9.148 0 011.245-2.833c.134-.21.275-.408.415-.596.047-.065.098-.123.145-.184-.581.303-1.213.516-1.596.202z"
                    fill="#E60068"
                  ></path>
                  <path
                    d="M24.156 50.68a22.254 22.254 0 01-6.39-2.31 20.09 20.09 0 01-1.317-.68 12.628 12.628 0 00-2.093 1.806c.054.43.137.855.249 1.274.278 1.04 18.106 3.97 20.185 3.393a5.162 5.162 0 003.007-2.217 19.351 19.351 0 00-.31-1.285c-4.12.686-8.826.957-13.331.018z"
                    fill="#FF0F74"
                  ></path>
                  <path
                    d="M34.79 54.166c-2.08.56-19.907-2.353-20.185-3.393a9.785 9.785 0 01-.25-1.274c-.075.083-.155.162-.23.253-.16.18-.318.36-.47.566-.151.206-.3.387-.418.578a8.121 8.121 0 00-1.206 2.823 30.479 30.479 0 007.746 2.675c2.062.412 4.154.653 6.256.721.1 0 6.858.26 12.045-1.187.083-.847.07-1.7-.04-2.545a16.327 16.327 0 00-.108-.722c-.04-.227-.087-.494-.133-.722a5.162 5.162 0 01-3.007 2.227zm14.16-5.869l-.166-.7v-.036l-.325.126a48.72 48.72 0 01-1.465.534c-1.01.361-2.278.766-3.74 1.17l-.837.22a6.748 6.748 0 00-1.473 2.13c-.877 2.277-1.642 2.36-1.873 2.324a11.47 11.47 0 010 1.578c1.74-.592 3.216-1.408 4.075-2.527a10.725 10.725 0 012.256-3.173 5.414 5.414 0 013.292-1.574c.09 0 .177-.021.267-.025l-.01-.047z"
                    fill="#E60068"
                  ></path>
                  <path
                    d="M40.937 51.74a6.746 6.746 0 011.473-2.129 55.29 55.29 0 01-3.97.888c.075.267.169.628.263 1.054.047.227.097.47.14.722.044.253.08.48.116.722.047.336.08.69.105 1.047.23.057 1.003-.026 1.873-2.303z"
                    fill="#FF0F74"
                  ></path>
                  <path
                    d="M74.857 11.031s.95-4.577-2.996-8.454c0 0-2.603-2.635 1.397-1.624 0 0 6.927 1.639 4.035 10.266 0 0-2.736 4.183-2.436-.188z"
                    fill="#01B3A6"
                    stroke="#058B81"
                  ></path>
                  <path
                    d="M77.347 10.136c.16-.455 3.314-6.996 11.949-7.357 0 0 6.858.361.151 2.946A33.845 33.845 0 0181.9 7.829s-2.703.917-5.097 4.332l.545-2.025z"
                    fill="#01B3A6"
                    stroke="#058B81"
                  ></path>
                  <path
                    d="M48.37 50.73s-3.498-20.51 3.45-30.187c0 0 9.811-12.912 33.642-9.458 0 0 19.037 2.924 19.019 13.027 0 0-.18 25.557.664 29.96 0 0 1.993 5.245-1.786 8.155 0 0-24.008 11.19-39.248 6.172 0 0-7.642-2.837-9.674-6.948l-3.505-1.361a11.248 11.248 0 01-4.007-7.66s.037-1.953 1.444-1.7v0z"
                    fill="#01B3A6"
                    stroke="#058B81"
                  ></path>
                  <path
                    d="M104.485 54.314a.814.814 0 01-.033-.119c-.722-3.692-.722-21.56-.689-27.892-.913 3.4-1.769 7.657-1.13 10.024 1.173 4.368-9.717 5.105-9.717 5.105s.115 3.443 4.837 5.757c0 0 3.584 4.555 3.133 5.696 0 0-4.48-2.27-7.688-2.112 0 0-.618 2.09 3.28 3.523 0 0 3.174 2.769-.053 4.39 0 0-29.867 12.496-38.371 2.66l-3.74-5.053s-.223.248-.498.599a.721.721 0 01.141.397 11 11 0 00.866 3.548c.119.068.214.17.275.292 1.884 3.812 9.204 6.566 9.28 6.592 1.022.33 2.065.591 3.122.78 14.323 2.562 34.13-6.274 35.49-6.895 3.224-2.563 1.567-7.1 1.495-7.292z"
                    fill="#0E9C8B"
                  ></path>
                  <path
                    d="M62.317 46.445s1.083.361 2.216 2.191a2.581 2.581 0 002.527 1.271s29.328-1.754 38.075 5.844"
                    stroke="#058B81"
                  ></path>
                  <path
                    d="M77.607 24.022s-14.474 4.415-13.926 11.353c0 0-.675 10.15 6.776 11.32 0 0 12.944.526 15.243-4.112 0 0 2.837-7.642-.758-15.785 0 .004-3.064-3.804-7.335-2.776zm14.472 3.895s-4.47 3.126-3.935 11.031c0 0 .126 4.75 8.468 6.407 0 0 6.88 2.527 8.194-5.703 0 0 4.137-10.342-6.201-12.684 0 0-3.447-.78-6.526.949z"
                    fill="#fff"
                  ></path>
                  <path
                    d="M83.289 36.938a1.765 1.765 0 11-3.475-.62 1.765 1.765 0 013.475.62zm18.904.942a1.765 1.765 0 11-3.476-.621 1.765 1.765 0 013.476.62z"
                    fill="#063501"
                  ></path>
                  <path
                    d="M71.16 16.908s-10.828 2.45-12.965 6.923c0 0-2.801 4.093-3.61 8.104 0 0-4.822 1.96-3.324-5.35 0 0 2.01-6.22 8.114-9.638 0 0 5.577-2.054 9.071-2.32-.014 0 6.996-1.762 2.715 2.28z"
                    fill="#01D6D0"
                  ></path>
                </g>
                <defs>
                  <clipPath id="clip0">
                    <path fill="#fff" d="M0 0h106.405v85H0z"></path>
                  </clipPath>
                </defs>
              </svg>