<svg viewBox="0 0 124 85" fill="none" xmlns="http://www.w3.org/2000/svg" id="R-1"><g clip-path="url(#clip0)"><path d="M16.65 52.677s-1.076 10.545 9.393 13.77c0 0 33.008 8.016 35.418 1.507 0 0 2.932-8.194 2.864-8.748-.067-.554 1.437-4.353.823-5.758-.613-1.404-4.427-5.57-4.427-5.57s-42.093.53-44.071 4.799z" fill="#FF976D" stroke="#FF976D"></path><path d="M57.322 52.206s-4.448 7.708-.135 14.692a4.297 4.297 0 003.957 2.607s5.005-.771 4.21-7.395c-.004 0-3.569-12.4-8.032-9.904v0z" fill="#FF976D" stroke="#FF976D"></path><path d="M30.396 57.928s-2.56 5.935.162 9.725m12.714-8.167s-1.635 6.668 1.919 10.355l-1.92-10.354z" stroke="#FF976D"></path><path d="M64.54 62.351c-.044-.154-.096-.316-.147-.478-.127-.396-.27-.831-.427-1.275-.159-.443-.301-.827-.471-1.25-1.219-3.035-2.995-6.216-4.705-6.564a1.483 1.483 0 00-.918.107c-.629 1.218-3.68 7.79-.043 13.682a.796.796 0 01.07.143 3.475 3.475 0 002.086 1.891c.13.046.262.083.396.11.187.035.376.058.566.068a.69.69 0 00.09 0 4.08 4.08 0 001.093-.415c1.206-.641 2.845-2.232 2.41-6.019z" fill="#FFA384"></path><path d="M26.245 65.778c.028 0 1.358.324 3.447.791a8.841 8.841 0 01-.523-2.991c-4.498-1.468-8.455-4.135-11.387-6.549.748 3.07 2.825 7.016 8.463 8.749z" fill="#FFBF93"></path><path d="M56.448 67.345c-4.452-7.289-.032-15.115.158-15.432a.764.764 0 01.3-.293 3.106 3.106 0 012.2-.371c2.066.423 3.771 2.987 4.982 5.515.27-1.072.53-2.374.305-2.888-.396-.875-2.592-3.478-4.048-5.1-1.93.031-11.383.205-20.911.79-18.82 1.152-21.628 2.921-22.024 3.455-.063 1.348.07 2.699.396 4.008 2.932 2.414 6.888 5.08 11.387 6.549.02-1.95.406-3.88 1.14-5.686a.528.528 0 01.97.415 14.602 14.602 0 00-1.034 5.595c.975.272 1.966.477 2.968.614 0 0 6.374 1.69 9.793 1.535-.4-2.162-.36-4.382.115-6.529a.542.542 0 01.637-.395.534.534 0 01.396.64 15.606 15.606 0 00-.08 6.141 2.73 2.73 0 00.471-.158 4.187 4.187 0 014.238.329s3.779-.036 4.396.898c.226.344 1.084 1.464 2.16 2.77.908-.049 1.81-.169 2.7-.36a5.121 5.121 0 01-1.615-2.042z" fill="#FFA384"></path><path d="M33.237 64.516a22.345 22.345 0 01-3.003-.626 7.086 7.086 0 00.72 2.936c.305.064.617.131.946.194 4.562.938 8.705 1.634 12.325 2.097a9.438 9.438 0 01-1.187-3.066c-3.415.154-9.8-1.535-9.8-1.535zm15.574 1.563a4.187 4.187 0 00-4.238-.329c-.151.067-.31.12-.47.158a7.803 7.803 0 001.554 3.376 57.86 57.86 0 009.71.443c-1.076-1.286-1.934-2.406-2.16-2.77-.617-.906-4.396-.878-4.396-.878z" fill="#FFBF93"></path><path d="M47.632 67.91s-4.538 4.634-12.579 5.323c0 0-3.79-.792-2.295 4.198 0 0 1.832 6.837 11.178 6.778 0 0 13.936-.558 11.55-14.332 0 0 2.77-4.815-3.628-5.935 0-.016-4.206-.514-4.226 3.969v0z" fill="#0BCBBD" stroke="#058B81"></path><path d="M54.707 70.012a.791.791 0 01.095-.53s.878-1.583.288-2.87c-.427-.941-1.555-1.582-3.37-1.906 0 0-1.44-.139-2.395.712-.593.53-.898 1.369-.902 2.496a.79.79 0 01-.225.55c-.04.04-.253.254-.63.574 1.98.333 4.108 1.096 4.428 2.548 0 0-.696 10.185-15.396 9.75 1.24.89 2.657 1.5 4.155 1.788a15.5 15.5 0 003.165.293c.028 0 5.857-.293 9.006-4.202 1.848-2.279 2.445-5.377 1.78-9.203z" fill="#0E9C8B"></path><path d="M51.996 71.586c-.32-1.452-2.449-2.215-4.427-2.548A22.384 22.384 0 0135.12 74.02a.723.723 0 01-.226 0s-.946-.166-1.389.328c-.443.495-.395 1.476 0 2.865a8.405 8.405 0 003.087 4.135c14.707.423 15.403-9.762 15.403-9.762z" fill="#01B3A6"></path><path d="M51.49 68.789a5.445 5.445 0 013.996 1.088" stroke="#058B81"></path><path d="M39.825 74.479s-5.33-.285-4.922 1.686c.407 1.97.502 2.793 1.333 2.694.831-.099 2.375-1.128 3.957-2.152 1.583-1.025 4.349-4.222-.368-2.228z" fill="#4BD2CF"></path><path d="M25.3 63.875s-1.163 2.995-3.05 3.505c0 0-6.803 8.662-15.828 3.581 0 0-8.646-2.485-4.535-11.158 0 0 1.116-2.821 8.278-.103 0 0 6.727 3.166 9.1 1.148 0 0 .301-.792 2.046-.74.265.005.53.026.792.063 2.453.32 3.897 1.16 3.197 3.704z" fill="#0BCBBD" stroke="#058B81"></path><path d="M18.751 66.933s2.636-1.745-.051-4.886c-1.005.34-2.327.352-3.957.02a24.668 24.668 0 01-4.87-1.63 19.97 19.97 0 00-3.016-.907c-3.478-.712-4.214.554-4.218.566-1.171 2.48-1.364 4.59-.578 6.33.851 1.9 2.683 2.964 3.76 3.451 4.194.748 9.982.926 12.93-2.944z" fill="#01B3A6"></path><path d="M24.505 61.971c-.25-.395-.828-.704-1.77-.898-.229-.043-.474-.083-.727-.118a6.645 6.645 0 00-.7-.056c-.986 0-1.279.253-1.322.3a.72.72 0 01-.198.25c-.322.267-.69.47-1.088.598 2.687 3.141.051 4.886.051 4.886-2.948 3.87-8.736 3.692-12.935 2.944.273.126.553.235.84.325.058.02.115.043.17.07a11.582 11.582 0 003.37 1.295c6.609 1.353 11.384-4.614 11.432-4.677a.763.763 0 01.415-.273c1.211-.325 2.22-2.28 2.505-2.988.198-.716.182-1.294-.043-1.658z" fill="#0E9C8B"></path><path d="M19.903 63.938a2.651 2.651 0 012.14 2.679" stroke="#058B81"></path><path d="M3.355 61.896s.167-2.12 2.956-1.282c2.79.84 2.79.843 3.77 1.31.982.467 2.842.593 2.185 1.254s-1.246.823-2.904 1.021c-1.658.198-.883.36-3 .194-2.116-.166-4.676.392-3.007-2.497z" fill="#4BD2CF"></path><path d="M61.615 34.69s-5.753-9.616-18.759-8.31c0 0-17.41.922-24.611 19.388 0 0-.85 5.03.455 5.658 1.306.63 6.5 4.171 9.156 4.365 2.655.194 16.963 1.318 16.963 1.318s2.896-.123 4.66-.843c1.766-.72 9.33-4.373 9.782-4.816.451-.443 3.039-.815 3.49-1.262.451-.447 1.234-13.936-1.136-15.499v0z" fill="#9C0044" stroke="#9C0044"></path><path d="M61.79 49.626s-20.497 8.907-34.187 1.259c0 0-5.58-2.58-8.389-6.387 0 0-3.604-3.43-7.181 1.761 0 0-1.464 3.648.455 5.658 0 0 6.857 9.496 23.788 10.078 0 0 15.483.657 19.475-4.811 0 0 2.406-5.611 6.727-4.748l-.689-2.81z" fill="#9C0044" stroke="#9C0044"></path><path d="M49.59 39.05s2.05 7.957.266 14.054M31.97 30.416s1.911 4.7 4.313 6.988c0 0 8.547 2.109 13.307 1.646 0 0 6.24-3.3 8.075-8.31l-25.695-.324zm-6.315 19.89s-4.618 2.822-5.314 7.519l5.314-7.518zm23.575 3.21s1.329 4.044.692 7.142l-.693-7.142zM36.284 37.404s-7.027 5.828-9.951 12.23l9.95-12.23z" stroke="#9C0044"></path><path d="M40.62 36.403c4.393.902 5.845.395 9.833-.677 2.125-.57 4.353-3.035 5.935-5.215a18.558 18.558 0 00-7.059-3.07 21.27 21.27 0 00-6.394-.293 28.011 28.011 0 00-10.386 3.264c.162.396.557 1.266 1.108 2.315a190.818 190.818 0 001.697 1.792s.87.985 5.267 1.884z" fill="#FF0F74"></path><path d="M50.453 35.726c-3.988 1.068-5.44 1.583-9.833.677-4.392-.907-5.27-1.884-5.27-1.884s-.72-.748-1.697-1.792a17.973 17.973 0 002.896 4.194c1.104.265 8.574 1.978 12.883 1.614.736-.395 5.777-3.351 7.566-7.573-.194-.15-.396-.3-.614-.451-1.598 2.18-3.806 4.645-5.93 5.215z" fill="#E60068"></path><path d="M38.626 38.46c-1.029-.21-1.812-.396-2.204-.483-1.14.986-6.892 6.126-9.496 11.665.613.332 1.005.514 1.02.522l.052.028c.902.498 1.838.93 2.802 1.294 2.983.09 10.738-.162 13.488-.063 3.206.118 2.794-.503 3.993-2.41.677-1.08 1.242-3.296 1.61-5.021a38.423 38.423 0 00-.7-4.384c-3.237.201-7.783-.578-10.565-1.148z" fill="#FF0F74"></path><path d="M44.277 51.438c-2.77-.099-10.506.155-13.49.064 1.227.465 2.49.829 3.776 1.088 5.013 1.029 10.355.633 14.944-.21.685-2.77.626-5.868.372-8.373-.367 1.726-.933 3.957-1.61 5.022-1.183 1.891-.787 2.512-3.992 2.41z" fill="#E60068"></path><path d="M52.823 49.136c1.543 1.661 6.996-2.608 6.996-2.608 2.651-2.418-.364-11.384-.364-11.384-.49-1.646-1.436-2.124-2.335-2.144-2.12 3.359-5.757 5.646-6.92 6.33.408 1.825.683 3.676.823 5.54.415 1.642 1.044 3.454 1.8 4.266z" fill="#FF0F74"></path><path d="M61.18 35.35a.831.831 0 01-.245-.253 16.467 16.467 0 00-3.083-3.443c-.215.463-.46.91-.732 1.342.899 0 1.844.498 2.335 2.144 0 0 3.015 8.966.364 11.384 0 0-5.453 4.27-6.996 2.608-.755-.812-1.369-2.624-1.8-4.262.211 2.43.078 4.88-.396 7.273a61.14 61.14 0 0010.83-3.249.792.792 0 01.669 0c.026.014.051.03.075.048.42-3.122.479-12.603-1.021-13.592z" fill="#E60068"></path><path d="M25.62 46.528c2.861-3.957 5.805-6.137 7.914-7.304.855-.84 1.583-1.484 1.998-1.856-1.95-2.077-3.482-5.401-3.913-6.438a28.885 28.885 0 00-11.776 13.09c.308.416.643.813 1.001 1.186 1.487.76 3.111 1.21 4.776 1.322z" fill="#FF0F74"></path><path d="M33.518 39.224c-2.093 1.187-5.037 3.347-7.913 7.304a12.332 12.332 0 01-4.749-1.33A24.135 24.135 0 0026 49.125c1.892-3.98 5.231-7.66 7.518-9.9z" fill="#E60068"></path><path d="M46.136 29.185s-4.985 1.943-6.687 2.402c-1.701.46-4.708.653-4.807-.178-.1-.83-2.533-.791.68-2.014 3.213-1.223 10.521-4.04 10.814-.21zM28.885 34.54s-3.221 2.572-4.784 4.946a16.866 16.866 0 01-2.86 3.454s1.313-3.767 3.442-6.299c2.128-2.532 5.559-4.784 4.202-2.101zm7.688 4.538l3.458 1.516-3.268 1.484-3.423 2.263-1.816.973a13.663 13.663 0 015.049-6.236z" fill="#FF61A9"></path><path d="M24.79 50.251c-1.718-1.036-3.99-2.623-5.659-4.597-.174-.206-.344-.396-.502-.626l-.072-.055a3.799 3.799 0 00-.676-.427 3.628 3.628 0 00-.887-.313c-1.495-.305-2.928.499-4.257 2.374-.12.343-.218.693-.293 1.049 2.145 3.731 7.06 4.997 7.767 5.54.416.328 1.112.106 1.75-.23.11-.147.225-.293.34-.428a14.64 14.64 0 012.488-2.287z" fill="#FF0F74"></path><path d="M20.211 53.23c-.708-.553-5.622-1.82-7.767-5.539-.225 1.08-.344 2.687.617 3.692l.072.083c.027.044 2.156 2.896 6.849 5.504.28-1.11.75-2.165 1.385-3.118.146-.225.3-.443.455-.649.051-.071.107-.134.158-.202-.657.337-1.353.558-1.769.23z" fill="#E60068"></path><path d="M34.246 54.125a24.458 24.458 0 01-7.007-2.536c-.139-.067-.677-.325-1.44-.748a13.884 13.884 0 00-2.296 1.978c.06.471.151.938.273 1.397.305 1.14 19.848 4.333 22.127 3.723a5.654 5.654 0 003.296-2.433c-.123-.593-.25-1.08-.34-1.405-4.515.756-9.687 1.037-14.613.024z" fill="#FF0F74"></path><path d="M45.899 57.951c-2.28.61-21.822-2.584-22.127-3.723a10.615 10.615 0 01-.273-1.397l-.257.281c-.17.194-.344.396-.51.621-.166.226-.313.424-.463.65a8.898 8.898 0 00-1.298 3.093 33.419 33.419 0 008.491 2.928c2.26.454 4.554.72 6.857.792.111 0 7.518.285 13.204-1.302.091-.93.076-1.867-.047-2.793a13.529 13.529 0 00-.115-.792c-.043-.249-.095-.542-.146-.791a5.654 5.654 0 01-3.316 2.433zm15.526-6.434l-.182-.771v-.04l-.352.139a60.503 60.503 0 01-5.706 1.868l-.918.245a7.48 7.48 0 00-1.618 2.334c-.957 2.497-1.796 2.584-2.05 2.545.038.577.038 1.156 0 1.733 1.908-.65 3.526-1.547 4.464-2.77a11.825 11.825 0 012.477-3.478 5.967 5.967 0 013.604-1.714c.1 0 .194-.023.293-.023l-.012-.068z" fill="#E60068"></path><path d="M52.625 55.292a7.48 7.48 0 011.619-2.334 61.2 61.2 0 01-4.353.97 23.484 23.484 0 01.443 1.95c.052.277.087.53.127.791.048.368.087.756.115 1.148.265.06 1.104-.028 2.05-2.525z" fill="#FF0F74"></path><path d="M91.074 10.92s-.396-5.104-5.722-7.992c0 0-3.561-1.978.974-2.137 0 0 7.798-.376 7.371 9.592 0 0-1.61 5.235-2.623.538z" fill="#01B3A6" stroke="#058B81"></path><path d="M93.313 11.38c.107-.519 2.556-8.096 11.871-9.777 0 0 7.49-.622.609 3.165a37.246 37.246 0 01-7.882 3.415s-2.801 1.4-4.887 5.46l.29-2.263z" fill="#01B3A6" stroke="#058B81"></path><path d="M60.389 53.813S57.112 31.259 64.99 20.82c0 0 11.1-13.88 37.119-9.453 0 0 20.781 3.72 20.489 14.786 0 0-.887 28.007-.08 32.842 0 0 2.042 5.8-2.18 8.887 0 0-26.61 11.605-43.172 5.702 0 0-8.31-3.316-10.415-7.878l-3.806-1.583s-3.727-2.83-4.187-8.483c0 .007.08-2.133 1.63-1.828z" fill="#01B3A6" stroke="#058B81"></path><path d="M121.771 59.269a.735.735 0 01-.032-.13c-.681-4.068-.198-23.647 0-30.587-1.092 3.704-2.141 8.345-1.508 10.957 1.168 4.819-10.786 5.333-10.786 5.333s.036 3.775 5.144 6.438c0 0 3.806 5.089 3.284 6.331 0 0-4.851-2.607-8.373-2.52 0 0-.732 2.27 3.502 3.956 0 0 3.403 3.122-.178 4.812 0 0-33.067 12.887-42.12 1.88l-3.957-5.659s-.257.27-.566.645c.09.129.14.282.143.44.067 1.34.355 2.662.855 3.908a.76.76 0 01.292.329c1.979 4.23 9.912 7.443 9.991 7.474a25.01 25.01 0 003.403.938c15.63 3.197 37.57-5.935 39.081-6.596 3.589-2.722 1.9-7.735 1.825-7.95z" fill="#0E9C8B"></path><path d="M75.777 49.515s1.187.42 2.374 2.462a2.825 2.825 0 002.77 1.46s32.184-1.128 41.546 7.434" stroke="#058B81"></path><path d="M93.147 25.347s-15.99 4.444-15.594 12.069c0 0-1.013 11.102 7.123 12.59 0 0 14.173.926 16.816-4.1 0 0 3.316-8.309-.396-17.314.004 0-3.252-4.258-7.949-3.245zm15.74 4.661s-4.981 3.289-4.606 11.982c0 0 0 5.207 9.101 7.248 0 0 7.475 2.964 9.136-6.03 0 0 4.812-11.221-6.457-14.066.004 0-3.751-.946-7.174.866z" fill="#fff"></path><path d="M99.015 39.655a1.935 1.935 0 11-3.79-.783 1.935 1.935 0 013.79.783zm20.686 1.543a1.93 1.93 0 01-1.528 1.512 1.937 1.937 0 01-2.302-1.91 1.93 1.93 0 011.204-1.781 1.936 1.936 0 012.626 2.18z" fill="#063501"></path><path d="M85.768 17.105s-11.87 2.687-14.21 7.593c0 0-3.074 4.487-3.956 8.88 0 0-5.286 2.148-3.644-5.865 0 0 2.204-6.817 8.895-10.564 0 0 6.113-2.248 9.943-2.54-.016 0 7.648-1.947 2.972 2.496z" fill="#01D6D0"></path></g><defs><clipPath id="clip0"><path fill="#fff" d="M0 0h123.804v85H0z"></path></clipPath></defs></svg>