<svg width="95" height="200" viewBox="0 0 95 200" fill="none" xmlns="http://www.w3.org/2000/svg">
<path d="M35.38 14.22L36.09 17.12C48.44 20.94 65.09 27.18 78.62 36.12C84.84 34.98 89.32 34.53 89.32 34.53C89.32 31.59 89.17 28.42 88.93 25.24C77.8332 17.0024 65.5045 10.5697 52.4 6.18002C46.5672 8.50855 40.8831 11.1936 35.38 14.22Z" fill="white"/>
<path d="M44.22 50.48C50.49 42.48 67.38 38.2 78.62 36.15C65.14 27.15 48.44 20.94 36.09 17.15L44.22 50.48Z" fill="#FF0F74"/>
<path d="M52.4 6.21001C65.5052 10.6028 77.8339 17.0388 88.93 25.28C88.01 13.17 85.79 0.970009 85.79 0.970009C76.5 -1.82999 63.07 1.97001 52.4 6.21001Z" fill="#FF0F74"/>
<path d="M38.92 181.36C38.92 181.36 42.45 194.63 45.99 199.94C45.99 199.94 49.53 194.63 53.07 181.36H38.92Z" fill="#FFF0F2"/>
<path d="M37.15 103.54C37.15 103.54 41.57 77.9 54.84 100.89L37.15 103.54Z" fill="#FFF0F2"/>
<path d="M47.32 188.44C73.4486 188.44 94.63 168.642 94.63 144.22C94.63 119.798 73.4486 100 47.32 100C21.1914 100 0.0100098 119.798 0.0100098 144.22C0.0100098 168.642 21.1914 188.44 47.32 188.44Z" fill="#F9353E"/>
<path d="M41.82 100.28C18.28 102.83 0.0100098 121.51 0.0100098 144.19C0.0120445 152.132 2.27715 159.909 6.54001 166.61C4.51001 125.42 28.09 107.28 41.82 100.28Z" fill="#FF61A9"/>
<path d="M66.32 103.73C58.5713 100.546 50.1467 99.3594 41.82 100.28C28.09 107.28 4.51001 125.39 6.54001 166.61C14.4 179.06 28.54 187.61 44.97 188.35C84.71 163.28 74.32 122.91 66.32 103.73Z" fill="#FF0F74"/>
<path d="M66.32 103.73C74.32 122.91 84.7 163.25 44.96 188.38C45.74 188.38 46.52 188.44 47.31 188.44C73.44 188.44 94.62 168.64 94.62 144.22C94.63 126.12 82.99 110.57 66.32 103.73Z" fill="#E60068"/>
<path d="M43.32 92.05C43.32 92.05 38.9 31.91 31.82 12.45L35.36 9.80002C35.36 9.80002 47.74 30.14 46.86 92.93L43.32 92.05Z" fill="#866FB5"/>
</svg>
