<svg width="96" height="201" viewBox="0 0 96 201" fill="none" xmlns="http://www.w3.org/2000/svg">
<path d="M35.88 14.47L36.59 17.37C48.95 21.19 65.59 27.43 79.13 36.37C85.34 35.24 89.83 34.79 89.83 34.79C89.83 31.85 89.67 28.68 89.43 25.5C78.3308 17.2637 66.0029 10.8281 52.9 6.43002C47.0661 8.75601 41.3819 11.4412 35.88 14.47Z" fill="white"/>
<path d="M44.73 50.73C50.99 42.73 67.89 38.45 79.13 36.39C65.64 27.39 48.95 21.19 36.59 17.39L44.73 50.73Z" fill="#FFAE3E"/>
<path d="M52.9 6.45002C66.0029 10.848 78.3308 17.2837 89.43 25.52C88.51 13.41 86.29 1.20001 86.29 1.20001C77 -1.57999 63.57 2.22002 52.9 6.45002Z" fill="#FFAE3E"/>
<path d="M39.42 181.61C39.42 181.61 42.96 194.88 46.49 200.18C46.49 200.18 50.03 194.88 53.57 181.61H39.42Z" fill="#FFF0F2"/>
<path d="M37.65 103.79C37.65 103.79 42.07 78.14 55.34 101.13L37.65 103.79Z" fill="#FFF0F2"/>
<path d="M42.32 100.56C18.79 103.1 0.51001 121.79 0.51001 144.47C0.519758 152.411 2.78425 160.186 7.04001 166.89C5.01001 125.66 28.6 107.56 42.32 100.56Z" fill="#FFBD83"/>
<path d="M66.83 103.98C59.0756 100.804 50.6475 99.6282 42.32 100.56C28.6 107.56 5.00999 125.66 7.03999 166.89C14.9 179.34 29.04 187.89 45.47 188.63C85.22 163.5 74.84 123.15 66.83 103.98Z" fill="#FFAE3E"/>
<path d="M66.83 103.98C74.83 123.15 85.22 163.5 45.47 188.63C46.25 188.63 47.03 188.69 47.82 188.69C73.95 188.69 95.13 168.89 95.13 144.47C95.13 126.37 83.49 110.82 66.83 103.98Z" fill="#F39501"/>
<path d="M43.84 92.28C43.84 92.28 39.42 32.15 32.34 12.69L35.88 10.04C35.88 10.04 48.26 30.38 47.38 93.17L43.84 92.28Z" fill="#866FB5"/>
</svg>
