<svg viewBox="0 0 24 24" fill="none" xmlns="http://www.w3.org/2000/svg"><path fill-rule="evenodd" clip-rule="evenodd" d="M14.848 6.674l.853.011c3.065 0 5.3 2.185 5.3 5.202v3.876c0 3.018-2.235 5.202-5.3 5.202-1.228.026-2.456.035-3.692.035-1.237 0-2.482-.009-3.71-.035C5.235 20.965 3 18.781 3 15.763v-3.876C3 8.87 5.235 6.685 8.308 6.685c1.157-.017 2.34-.035 3.542-.035v-.147c0-.598-.503-1.084-1.104-1.084h-.874c-.998 0-1.811-.797-1.811-1.769 0-.355.3-.65.662-.65.371 0 .663.295.663.65 0 .26.22.469.486.469h.874c1.334.008 2.42 1.075 2.429 2.375v.165c.557 0 1.113.008 1.673.015zm-3.881 7.797h-.927v.919c0 .355-.3.65-.663.65a.656.656 0 01-.662-.65v-.919h-.936a.656.656 0 01-.663-.65c0-.356.3-.65.663-.65h.936v-.911c0-.355.291-.65.662-.65.362 0 .663.295.663.65v.91h.927c.362 0 .662.295.662.65 0 .365-.3.651-.662.651zm3.753-1.465h.089a.655.655 0 00.662-.65c0-.355-.3-.65-.662-.65h-.089a.65.65 0 100 1.3zm1.51 2.983h.09a.656.656 0 00.662-.65c0-.356-.3-.65-.663-.65h-.088a.65.65 0 100 1.3z" fill="url(#games_gradient)"></path><defs><linearGradient id="games_gradient" x1="12" y1="3" x2="12" y2="21" gradientUnits="userSpaceOnUse"><stop stop-color="#FFA9CD"></stop><stop offset="1" stop-color="#886AFF"></stop></linearGradient></defs></svg>