<svg width="24" height="24" fill="none" xmlns="http://www.w3.org/2000/svg"><path fill-rule="evenodd" clip-rule="evenodd" d="M20.846 14.34c-.035.535-.186 1.646-.454 3.336a1.099 1.099 0 01-.964.92c-3.404.377-5.989.566-7.756.566-1.766 0-4.35-.189-7.753-.566a1.099 1.099 0 01-.965-.925c-.342-2.226-.513-3.927-.513-5.103 0-1.176.171-2.877.513-5.103.075-.491.471-.87.965-.925 3.402-.377 5.987-.565 7.753-.565 1.767 0 4.35.188 7.753.565.493.054.889.433.965.923.282 1.822.44 3.02.471 3.591" fill="#22096C"></path><path fill-rule="evenodd" clip-rule="evenodd" d="M11.67 6.414c-1.741 0-4.306.186-7.704.563a.66.66 0 00-.58.555c-.34 2.22-.507 3.894-.507 5.036 0 1.142.167 2.817.507 5.036a.66.66 0 00.58.556c3.398.376 5.963.562 7.705.562s4.307-.186 7.706-.563a.66.66 0 00.579-.552c.269-1.694.416-2.785.45-3.295a.44.44 0 11.877.057c-.037.558-.192 1.69-.459 3.376a1.538 1.538 0 01-1.35 1.288c-3.407.378-6.012.568-7.803.568-1.792 0-4.395-.19-7.8-.567h-.002a1.538 1.538 0 01-1.351-1.296C2.175 15.506 2 13.778 2 12.568s.175-2.938.518-5.17a1.538 1.538 0 011.35-1.295c3.407-.377 6.011-.568 7.803-.568 1.79 0 4.394.19 7.8.568.691.076 1.245.606 1.351 1.293.282 1.817.443 3.036.476 3.634a.44.44 0 11-.877.049c-.03-.547-.184-1.722-.468-3.548a.66.66 0 00-.578-.554c-3.398-.377-5.963-.563-7.704-.563z" fill="#22096C"></path><path fill-rule="evenodd" clip-rule="evenodd" d="M18.65 5.381c-2.861-.223-5.287-.26-7.28-.11-2.102.157-4.642.712-7.626 1.674a.396.396 0 01-.243-.753c3.019-.974 5.624-1.547 7.81-1.71 2.046-.153 4.515-.115 7.401.11.494.04.895.417.963.908.079.574.123.884.134.948a.396.396 0 01-.779.139 49.624 49.624 0 01-.139-.979.264.264 0 00-.24-.227zM21.56 14.327h-2.966a1.648 1.648 0 110-3.297h2.967V14.327z" fill="#22096C"></path><path fill-rule="evenodd" clip-rule="evenodd" d="M18.592 11.47a1.209 1.209 0 000 2.418h2.527V11.47h-2.527zm-2.088 1.209c0-1.153.935-2.088 2.088-2.088h2.967a.44.44 0 01.44.44v3.296a.44.44 0 01-.44.44h-2.967a2.088 2.088 0 01-2.088-2.088z" fill="#F0ECFF"></path><path d="M18.592 13.228a.55.55 0 100-1.1.55.55 0 000 1.1z" fill="#fff"></path><path d="M10.133 15.865a3.297 3.297 0 110-6.593 3.297 3.297 0 010 6.593z" fill="#F0ECFF"></path><path fill-rule="evenodd" clip-rule="evenodd" d="M10.13 9.711a2.857 2.857 0 110 5.715 2.857 2.857 0 010-5.715zm3.737 2.857a3.736 3.736 0 10-7.472 0 3.736 3.736 0 007.472 0z" fill="#F0ECFF"></path><path fill-rule="evenodd" clip-rule="evenodd" d="M10.13 11.03a.44.44 0 00-.439.44v2.198a.44.44 0 00.88 0V11.47a.44.44 0 00-.44-.44z" fill="#22096C"></path><path fill-rule="evenodd" clip-rule="evenodd" d="M11.672 12.569a.44.44 0 00-.44-.44H9.034a.44.44 0 000 .879h2.198a.44.44 0 00.44-.44z" fill="#22096C"></path></svg>