<svg viewBox="0 0 68 48" fill="none" xmlns="http://www.w3.org/2000/svg">
            <path
              fill-rule="evenodd"
              clip-rule="evenodd"
              d="M0 15.948l.164 27.437a.863.863 0 001.062.834l31.985-7.6a.155.155 0 01.191.15l.151 10.38a.864.864 0 001.07.826l32.231-7.946a.863.863 0 00.657-.838V24.778a.863.863 0 00-.045-.274l-1.817-5.42a.156.156 0 01.011-.125l.52-.933a10.544 10.544 0 001.33-5.128V3.749A3.75 3.75 0 0062.885.104l-62.223 15A.863.863 0 000 15.95zm.707-.004c0-.072.05-.135.12-.152l62.223-15a3.04 3.04 0 013.753 2.957v9.149c0 1.674-.427 3.32-1.241 4.783l-.52.934a.863.863 0 00-.064.694l1.817 5.42a.157.157 0 01.008.05V39.19a.156.156 0 01-.118.15c-3.39.837-27.991 6.902-32.232 7.947a.155.155 0 01-.193-.149l-.15-10.381a.863.863 0 00-1.063-.827l-31.985 7.6a.155.155 0 01-.191-.15L.707 15.943z"
              fill="black"
            ></path>
            <path
              d="M7.853 39.173a.51.51 0 01-.39.495l-3.798.91a.509.509 0 01-.628-.496V17.77a.51.51 0 01.39-.495l10.818-2.59c2.258-.54 3.386.406 3.386 2.84v5.84c0 4.38-2.432 7.152-7.297 8.316l-2.09.5a.51.51 0 00-.391.496v6.496zm17.495-12.546a.51.51 0 00-.39.496v3.332a.51.51 0 00.627.496l6.334-1.517a.51.51 0 01.628.496v3.332a.51.51 0 01-.39.496l-11.388 2.725a.51.51 0 01-.627-.495V13.676a.51.51 0 01.39-.496l11.387-2.725a.51.51 0 01.628.495v3.333a.51.51 0 01-.39.495l-6.809 1.63a.51.51 0 00-.39.495v4.792a.51.51 0 00.627.496l5.604-1.342a.509.509 0 01.628.496v3.332a.51.51 0 01-.39.495l-6.079 1.455zm14.93-3.573a.51.51 0 00-.39.495v3.332a.51.51 0 00.627.496l6.334-1.516a.51.51 0 01.628.495v3.332a.51.51 0 01-.39.496L35.698 32.91a.51.51 0 01-.627-.496V10.102a.51.51 0 01.39-.495L46.85 6.88a.509.509 0 01.628.495v3.333a.51.51 0 01-.39.495l-6.809 1.63a.51.51 0 00-.39.495v4.793a.51.51 0 00.627.495l5.605-1.341a.51.51 0 01.627.495v3.332a.51.51 0 01-.39.496l-6.078 1.455zm24.136 2.409a.51.51 0 01-.363.66l-3.982.953a.509.509 0 01-.6-.33l-2.02-5.87a.51.51 0 00-.6-.329l-1.64.393a.51.51 0 00-.391.495v6.496a.51.51 0 01-.39.496l-3.799.909a.509.509 0 01-.627-.496V6.528a.51.51 0 01.39-.495l10.818-2.59c2.257-.54 3.386.407 3.386 2.84v5.84c0 2.509-.797 4.49-2.39 5.946a.508.508 0 00-.14.542c.408 1.194 1.839 5.366 2.348 6.851zM10.334 27.3c1.654-.396 2.481-1.324 2.481-2.784v-4.464a.51.51 0 00-.628-.495l-3.943.944a.51.51 0 00-.391.495v6.252a.51.51 0 00.628.496l1.853-.444zM57.3 16.06c1.654-.396 2.481-1.324 2.481-2.784V8.812a.51.51 0 00-.628-.496c-1.039.249-3.087.74-3.944.944a.51.51 0 00-.39.495v6.253a.51.51 0 00.628.495l1.853-.443z"
              fill="url(#logo_dark_paint0_linear)"
            ></path>
            <path
              d="M40.803 44.276l-3.285.827c-.948.238-1.422-.153-1.422-1.175v-6.745c0-1.022.474-1.653 1.422-1.891l3.285-.827c.948-.239 1.422.153 1.422 1.175v1.4a.17.17 0 01-.128.166l-1.683.423a.17.17 0 01-.211-.165v-.79a.17.17 0 00-.212-.165l-1.744.439a.17.17 0 00-.129.165v5.781a.17.17 0 00.212.165l1.744-.439a.17.17 0 00.129-.165v-1.49a.17.17 0 00-.212-.164l-.62.156a.17.17 0 01-.21-.164v-1.49a.17.17 0 01.128-.164l2.725-.686a.17.17 0 01.211.164v3.768c0 1.022-.474 1.653-1.422 1.891zm6.543-3.3a.17.17 0 00-.208-.133l-1.961.493a.17.17 0 00-.126.136l-.288 1.703a.17.17 0 01-.126.136l-1.714.432a.17.17 0 01-.209-.195l1.815-9.918a.17.17 0 01.125-.134l3.007-.757a.17.17 0 01.208.131l1.815 9.005a.17.17 0 01-.125.198l-1.746.44a.17.17 0 01-.208-.135l-.26-1.402zm6.56-1.174a.17.17 0 01-.204-.12l-1.063-3.836a.17.17 0 00-.334.045v5.407a.17.17 0 01-.128.165l-1.518.382a.17.17 0 01-.21-.164v-9.462a.17.17 0 01.128-.164l2.407-.606a.17.17 0 01.205.12l1.192 4.376a.17.17 0 00.329-.005l1.231-5.141a.17.17 0 01.124-.125l2.386-.6a.17.17 0 01.211.164V39.7a.17.17 0 01-.128.165l-1.518.382a.17.17 0 01-.211-.165v-5.154a.17.17 0 00-.335-.04l-1.081 4.448a.17.17 0 01-.124.125l-1.358.342zm7.675-4.467a.17.17 0 00-.128.164v1.49a.17.17 0 00.211.164l2.766-.695a.17.17 0 01.21.164v1.49a.17.17 0 01-.128.164l-4.87 1.226a.17.17 0 01-.212-.165v-9.46a.17.17 0 01.129-.165l4.87-1.226a.17.17 0 01.212.165v1.49a.17.17 0 01-.129.164l-2.93.737a.17.17 0 00-.129.165v2.103a.17.17 0 00.211.164l2.459-.618a.17.17 0 01.211.164v1.49a.17.17 0 01-.128.164l-2.625.66zM46.834 39.08a.17.17 0 00.125-.196l-.717-3.903a.041.041 0 00-.05-.032.068.068 0 00-.051.055l-.703 4.181a.17.17 0 00.208.193l1.188-.298z"
              fill="#fff"
            ></path>
            <defs>
              <linearGradient
                id="logo_dark_paint0_linear"
                x1="0%" y1="0%" x2="0%" y2="100%"
                gradientUnits="userSpaceOnUse"
              >
                <stop offset="0%" style="stop-color:rgb(255,0,0);stop-opacity:1" />
                <stop offset="100%" style="stop-color:rgb(255,255,0);stop-opacity:1" />
              </linearGradient>
            </defs>
          </svg>